<?xml version="1.0" encoding="iso-8859-1"?>
<!-- Generator: Adobe Illustrator 18.0.0, SVG Export Plug-In . SVG Version: 6.00 Build 0)  -->
<!DOCTYPE svg PUBLIC "-//W3C//DTD SVG 1.1//EN" "http://www.w3.org/Graphics/SVG/1.1/DTD/svg11.dtd">
<svg version="1.1" id="Capa_1" xmlns="http://www.w3.org/2000/svg" xmlns:xlink="http://www.w3.org/1999/xlink" x="0px" y="0px"
	 viewBox="0 0 274.252 274.252" style="enable-background:new 0 0 274.252 274.252;" xml:space="preserve">
<g>
	<path d="M172.449,77.431c5.76-3.717,11.088-8.926,16.254-13.11c4.716-3.818,11.303-7.579,12.445-14.031
		c0.31-1.753-0.731-3.393-2.623-3.443c-4.183-0.109-11.726-0.184-17.226,1.764c2.831-11.238,14.717-22.393,22.609-29.132
		c2.088-1.783,0.299-5.048-2.126-5.132c-13.405-0.461-27.707,3.275-37.871,12.349c-1.084-4.734-1.554-9.376-1.281-14.354
		c0.13-2.37-3.126-3.671-4.714-1.953c-5.215,5.641-9.745,11.494-13.88,17.838c-7.564-12.921-18.425-22.163-32.523-28.031
		c-2.434-1.014-3.826,2.097-3.022,3.931c3.811,8.692,6.553,17.438,8.525,26.595c-9.11-3.65-18.238-5.031-28.36-3.799
		c-2.594,0.315-3.389,3.183-1.292,4.769c8.719,6.593,16.165,13.929,23.287,21.92c-2.658-0.453-5.343-0.82-8.098-0.997
		c-2.769-0.178-3.126,3.399-1.286,4.747c5.697,4.172,11.317,8.706,17.371,12.405c-34.45,7.289-48.975,56.113-51.003,88.975
		c-3.19,51.684,1.645,109.377,62.777,115.045c10.381,0.962,19.3,0.372,27.138-1.34c0.595,0.102,1.198-0.012,1.665-0.32
		c37.495-9.199,46.978-47.448,47.912-90.653C208.105,136.312,207.354,95.29,172.449,77.431z M201.717,136.513
		c0.19,2.871,0.331,5.754,0.391,8.65c-2.33-3.253-5.358-6.211-8.208-8.475c-0.961-0.763-2.669-0.923-3.307,0.426
		c-0.701,1.484-1.406,2.997-2.1,4.525c-0.937-2.078-2.316-4-3.665-5.815c-0.175-0.235-0.377-0.518-0.565-0.78
		c0.088-0.127,0.221-0.18,0.268-0.366c1.203-4.779,3.759-8.861,7.527-11.93c1.342,2.161,2.698,4.314,4.056,6.464
		c1.536,2.434,2.908,5.165,5.082,7.079C201.352,136.428,201.539,136.452,201.717,136.513z M149.703,197.794
		c3.024-3.141,5.847-6.499,8.685-9.818c1.523,1.978,2.895,4.043,4.321,6.073c-0.001,0.003-0.003,0.006-0.004,0.009
		c-0.325,0.805,0.307,1.317,1.006,1.399c0.888,1.282,1.839,2.523,2.716,3.817c-3.395,3.935-6.45,8.216-8.813,12.84
		c-1.641-2.141-3.386-4.183-5.135-6.202c0.411-0.164,0.72-0.562,0.581-1.088C152.404,202.352,151.193,200.013,149.703,197.794z
		 M111.693,128.285c1.655-1.816,3.315-3.627,4.945-5.468c1.201-1.356,5.378-7.748,7.177-8.104
		c4.049-0.801,10.6,13.457,13.612,16.271c-2.284,2.803-4.547,5.623-6.722,8.51c-0.088-0.116-0.179-0.245-0.266-0.36
		c-1.978-2.61-4.766-6.866-7.907-8.157c-2.617-1.075-4.213,0.757-5.826,2.624c-0.48,0.555-0.919,1.15-1.388,1.717
		c0.022-0.138,0.059-0.275,0.009-0.419C114.527,132.629,113.217,130.427,111.693,128.285z M150.296,176.658
		c-2.79-3.531-5.52-7.106-7.805-11.107c-0.685-1.2-2.425-1.144-3.123,0c-1.168,1.915-2.412,3.774-3.64,5.646
		c-2.106-3.184-4.794-6.048-7.417-8.88c2.256-1.965,4.511-3.931,6.738-5.93c3.009-2.703,6.058-7.346,10.021-4.05
		c2.372,1.973,4.223,6.1,5.805,8.676c1.649,2.685,3.194,5.432,4.837,8.119C153.912,171.635,152.069,174.126,150.296,176.658z
		 M154.872,187.314c-2.221,2.828-4.443,5.665-6.511,8.597c-3.131-4.046-7.168-7.601-10.801-10.519
		c-0.879-0.706-2.139-0.701-2.772,0.357c-0.878,1.467-1.822,2.886-2.743,4.322c-0.773-1.797-1.672-3.546-2.615-5.279
		c4.085-4.764,7.809-9.797,11.346-14.976c2.18,3.821,4.703,7.665,7.587,11.122c0.013,0.011,0.019,0.027,0.032,0.037
		C150.366,183.333,152.477,185.541,154.872,187.314z M151.751,155.13c-1.68-2.485-4.19-7.908-7.172-9.091
		c-2.715-1.077-4.074,0.655-5.97,2.524c-0.695,0.685-1.357,1.405-2.047,2.097c-0.003-0.03,0.02-0.059,0.014-0.089
		c-0.598-3.472-2.712-6.769-4.857-9.703c0.159-0.031,0.323-0.05,0.456-0.181c3.983-3.925,7.783-8.037,11.596-12.129
		c4.357,6.167,8.909,12.89,14.237,18.13c-1.895,3.137-3.811,6.263-5.626,9.445C152.163,155.803,151.972,155.458,151.751,155.13z
		 M145.202,124.534c-0.565-0.686-1.929-0.687-2.491,0c-1.193,1.456-2.386,2.914-3.581,4.371c-1.057-2.559-2.625-4.94-4.273-7.26
		c0.258,0.032,0.518-0.013,0.728-0.238c2.533-2.711,4.956-5.525,7.415-8.303c1.025-1.158,2.05-2.316,3.075-3.475
		c1.497-1.692,1.388-2.391,2.982-1.282c1.568,1.092,3.002,4.19,4.174,6.59c0.035,0.206,0.134,0.378,0.276,0.532
		c0.262,0.525,0.528,1.072,0.759,1.461c1.481,2.5,2.83,5.036,4.773,7.175c-2.335,2.882-4.666,5.766-7.019,8.634
		C149.731,129.932,147.39,127.188,145.202,124.534z M116.665,138.537c2.397-2.545,3.403-5.06,6.289-2.089
		c4.628,4.765,6.914,10.624,10.886,15.716c0.238,0.305,0.516,0.411,0.794,0.47c-2.62,2.667-5.25,5.325-7.835,8.025
		c-0.317-0.349-0.645-0.697-0.955-1.046c-2.37-2.674-5.03-7.177-8.269-8.662c-2.014-0.924-3.422-0.33-4.965,1.074
		c-0.02,0.018-0.037,0.047-0.057,0.066c-0.891-1.872-1.996-3.69-3.169-5.475c0.114-0.055,0.24-0.048,0.336-0.162
		C111.993,143.776,114.256,141.095,116.665,138.537z M115.105,156.103c2.979-1.174,2.873,0.122,4.99,2.602
		c4.361,5.107,8.509,11.2,13.728,15.442c-1.875,2.775-3.798,5.518-5.743,8.249c-2.062-3.606-4.231-7.175-6-10.905
		c-0.511-1.078-2.394-1.386-3.157-0.407c-1.797,2.311-3.547,4.665-5.336,6.986c-1.957-3.764-4.461-7.423-7.135-10.96
		c1.701-2.332,3.292-4.737,4.868-7.16C112.479,158.168,112.978,156.941,115.105,156.103z M119.843,176.197
		c2.559,5.566,5.416,11.474,9.61,15.768c0.309,0.317,0.721,0.406,1.14,0.393c-1.868,2.847-3.765,5.674-5.641,8.523
		c-1.503-2.166-3.08-4.223-4.555-6.08c-0.836-1.053-2.602-0.616-3.206,0.413c-1.129,1.923-2.337,3.799-3.53,5.685
		c-1.713-3.628-3.836-7.146-6.012-10.63C111.806,185.661,115.842,180.939,119.843,176.197z M118.926,199.776
		c1.712,2.462,3.372,4.952,4.843,7.581c1.752,3.131,3.063,6.571,5.29,9.389c0.327,0.413,0.859,0.459,1.352,0.332
		c-3.28,4.201-6.568,8.404-9.654,12.742c-1.612-2.511-3.242-5.01-4.847-7.512c-0.775-1.208-2.596-1.301-3.35,0
		c-0.141,0.243-0.274,0.492-0.414,0.736c-1.199-2.855-2.703-5.629-4.121-8.219C111.829,209.938,115.283,204.786,118.926,199.776z
		 M126.15,202.667c0.123-0.054,0.258-0.049,0.363-0.166c3.698-4.093,6.932-8.595,10.045-13.151
		c4.852,4.585,8.677,9.981,13.279,14.703c-0.521,0.083-1.013,0.372-1.268,0.839c-2.755,5.042-5.286,10.317-7.082,15.808
		c-1.758-2.299-3.539-4.559-5.162-6.748c-0.675-0.91-2.288-1.54-3.166-0.408c-0.536,0.693-1.078,1.385-1.617,2.077
		C131.004,211.195,128.798,206.756,126.15,202.667z M159.637,184.193c-0.538-0.606-1.8-0.674-2.323,0
		c-0.199,0.255-0.4,0.511-0.6,0.767c-1.62-2.244-3.323-4.397-5.027-6.543c1.146-1.365,2.308-2.716,3.438-4.092
		c0.31-0.378,1.197-1.676,2.176-3.024c1.173,0.818,3.217,0.007,2.57-1.614c-0.142-0.354-0.352-0.674-0.501-1.024
		c0.53-0.589,0.978-0.983,1.236-0.977c0.971,0.022,2.809,4.534,3.388,5.589c0.095,0.173,0.199,0.341,0.294,0.514
		c-0.18,0.374-0.372,0.741-0.551,1.115c-0.62,1.291,1.087,2.352,1.91,1.259c0.97,1.759,1.909,3.537,2.991,5.228
		c-1.408,2.884-2.824,5.769-4.153,8.694C162.939,188.038,161.304,186.069,159.637,184.193z M165.505,168.643
		c-0.987-1.708-2.14-4.848-4.591-4.762c-1.177,0.042-2.136,0.883-2.95,1.91c-1.287-2.592-2.737-5.096-4.263-7.558
		c2.978-4.076,5.814-8.261,8.661-12.431c2.92,4.266,5.853,8.829,9.466,12.372c0.046,0.046,0.103,0.027,0.151,0.066
		c-1.968,3.867-3.87,7.768-5.771,11.668C165.968,169.491,165.746,169.059,165.505,168.643z M163.575,141.54
		c-0.708-0.902-2.195-0.509-2.71,0.349c-0.329,0.548-0.651,1.101-0.982,1.648c-1.984-3.271-4.364-6.453-6.845-9.549
		c3.199-3.378,6.423-6.731,9.645-10.086c3.553,4.622,6.763,9.457,9.637,14.533c-1.477,2.835-2.966,5.666-4.353,8.545
		C166.484,145.142,164.98,143.33,163.575,141.54z M168.043,126.386c1.107-0.897,2.05-1.905,3.038-3.029
		c1.257-1.429,3.284-4.77,4.924-5.677c2.036-1.126,3.303,1.756,4.607,3.408c1.362,1.725,2.683,3.506,4.237,5.057
		c-1.1,2.018-1.984,4.164-2.46,6.524c-1.028-1.108-2.22-1.982-3.658-1.981c-2.587,0.001-3.807,2.647-4.829,4.648
		C172.073,132.266,170.099,129.298,168.043,126.386z M181.367,116.016c-0.979-1.177-2.064-2.605-3.558-3.031
		c-1.259-2.848-3.467-5.274-5.365-7.726c-0.235-0.303-0.484-0.662-0.742-1.042c0.923-1.404,1.844-2.81,2.748-4.228
		c0.764-1.2,1.515-2.413,2.295-3.603c0.255-0.4,0.51-0.8,0.765-1.201c0.404-1.454,0.881-1.735,1.432-0.841
		c1.536,0.532,3.639,4.096,4.612,5.339c0.892,1.14,1.745,2.308,2.622,3.456c-0.397,1.085-0.611,2.282-0.873,3.2
		c-1.019,3.575-2.028,7.154-3.042,10.731C181.964,116.721,181.656,116.364,181.367,116.016z M174.505,113.829
		c-1.407,1.129-2.517,2.969-3.484,4.169c-1.59,1.975-3.396,3.89-4.689,6.076c-0.836-1.127-1.624-2.284-2.503-3.383
		c-0.448-0.56-1.567-0.551-2.014,0c-0.277,0.341-0.555,0.682-0.832,1.024c-1.101-2.894-2.863-5.596-4.58-8.214
		c0.994-1.29,1.994-2.575,2.972-3.879c1.051-1.401,2.063-2.999,3.218-4.315c0.355-0.48,0.711-0.961,1.067-1.441
		c1.384-1.67,2.411-1.695,3.082-0.075c0.731,0.61,1.366,1.316,1.971,2.052c0.093,0.182,0.208,0.353,0.38,0.458
		C170.977,108.72,172.448,111.556,174.505,113.829z M160.943,102.277c-1.997,3.023-3.967,6.084-5.867,9.179
		c-0.043-0.068-0.091-0.138-0.134-0.207c-1.295-2.047-3.234-6.975-6.143-7.359c-2.514-0.332-4.099,2.797-5.366,4.406
		c-0.15,0.191-0.298,0.384-0.449,0.575c-1.2-3.394-3.019-6.663-5.097-9.782c1.484-1.699,2.964-3.402,4.429-5.119
		c2.395-2.809,3.707-6.418,7.962-3.603c1.677,1.11,3.098,2.61,4.467,4.192c-0.032,0.073-0.064,0.144-0.095,0.217
		c-0.65,1.5,0.976,2.745,2.085,2.106c1.423,1.751,2.844,3.513,4.467,4.999C161.117,102.012,161.025,102.153,160.943,102.277z
		 M146.42,74.489c0.054,0.009,0.107,0.02,0.161,0.03c0.191,0.128,0.391,0.535,0.992,1.377c3.04,4.267,5.882,9.313,9.694,12.922
		c-0.38,0.874-0.77,1.743-1.15,2.618c-0.116-0.123-0.237-0.244-0.351-0.367c-2.055-2.209-4.341-5.746-7.689-5.888
		c-2.251-0.096-3.467,1.14-4.866,2.812c-0.256,0.306-0.478,0.646-0.73,0.956c-0.005-0.078,0.045-0.146,0.025-0.225
		c-0.541-2.142-1.603-4.235-2.841-6.277c0.947-1.19,1.896-2.378,2.836-3.574c0.783-0.996,1.841-2.825,2.834-3.607
		C145.984,74.752,146.225,74.507,146.42,74.489z M158.695,85.568c-1.89-3.293-4.529-6.324-6.751-9.345
		c-0.159-0.216-0.353-0.537-0.531-0.817c3.68,0.827,7.259,1.801,10.661,3.015c-0.909,1.263-1.5,2.908-2.06,4.147
		C159.563,83.563,159.136,84.569,158.695,85.568z M138.405,80.403c-1.717-2.462-3.714-4.8-5.665-6.915
		c3.005-0.14,6.101-0.144,9.393,0.153c0.136,0.04,0.247,0.115,0.397,0.135c0.083,0.011,0.158,0.033,0.24,0.044
		C141.292,75.999,139.851,78.202,138.405,80.403z M140.149,90.094c0.344,0.414,0.78,0.444,1.196,0.341
		c-1.687,2.148-3.369,4.305-4.975,6.519c-1.794-2.499-3.682-4.919-5.548-7.179c-0.674-0.817-2.07-0.689-2.763,0
		c-1.844,1.832-3.7,3.658-5.553,5.488c-0.991-2.988-2.12-5.928-3.219-8.879c2.759-4.398,6.001-8.345,9.923-11.798
		C133.302,79.527,136.103,85.22,140.149,90.094z M129.125,94.09c3.775,5.325,6.895,11.038,10.725,16.284
		c0.352,0.482,0.886,0.646,1.428,0.678c-2.422,3.048-4.868,6.079-7.191,9.2c-0.06,0.08-0.026,0.161-0.053,0.243
		c-0.94-1.298-1.881-2.586-2.758-3.868c-1.362-1.992-3.154-6.052-6.103-6.227c-2.584-0.152-4.403,2.633-5.848,4.587
		c-1.578-2.629-3.275-5.175-5.008-7.695C119.393,103.06,124.246,98.55,129.125,94.09z M116.591,117.832
		c0.069,0.118,0.164,0.18,0.244,0.274c-2.218,2.725-4.432,5.451-6.625,8.197c-2.575-3.293-5.504-6.435-7.813-9.417
		c-0.677-0.874-1.923-0.388-2.444,0.315c-0.789,1.064-1.564,2.141-2.355,3.204c-0.964-1.518-1.95-3.023-2.928-4.532
		c1.921-3.124,4.045-6.086,6.262-8.979c0.121-0.125,0.264-0.231,0.322-0.403c1.327-1.716,2.648-3.435,4.072-5.083
		C109.445,106.64,113.234,112.064,116.591,117.832z M98.079,124.373c0.488-0.202,0.817-0.579,0.897-1.093
		c0.74-0.914,1.5-1.812,2.239-2.728c2.044,2.955,4.135,6.252,6.436,9.254c-0.134,0.744,0.411,1.416,1.09,1.33
		c1.557,1.886,3.188,3.648,5.037,4.952c0.281,0.198,0.602,0.155,0.893,0.028c-2.285,2.812-4.477,5.709-6.471,8.722
		c-1.893-2.685-3.955-5.245-5.954-7.597c-0.789-0.928-2.192-0.51-2.783,0.359c-1.168,1.716-2.364,3.421-3.554,5.128
		c-1.575-3.175-3.38-6.268-5.243-9.324C93.186,130.435,95.626,127.399,98.079,124.373z M100.909,141.451
		c3.119,4.461,5.956,9.191,9.244,13.482c-2.086,2.978-3.867,6.81-5.378,10.037c-2.06-2.631-4.16-5.211-6.171-7.683
		c-0.752-0.924-2.129-0.47-2.697,0.348c-0.931,1.34-1.715,2.778-2.578,4.165c-0.766-2.23-2.168-4.314-3.355-6.305
		c-0.065-0.109-0.144-0.21-0.21-0.32C93.667,150.769,97.256,146.071,100.909,141.451z M97.387,161.453
		c4.55,6.385,8.89,13.237,14.02,19.054c0.07,0.079,0.156,0.056,0.231,0.115c-1.839,2.405-3.72,4.776-5.512,7.215
		c-1.458-2.321-2.906-4.636-4.229-6.962c-0.546-0.959-2.178-1.331-2.942-0.379c-1.836,2.288-3.703,4.827-5.435,7.475
		c-0.711-2.821-2.787-5.318-4.345-7.739c-0.449-0.697-0.896-1.486-1.354-2.299C90.594,172.139,93.652,166.654,97.387,161.453z
		 M99.946,185.268c1.077,2.108,2.194,4.258,3.344,6.398c-0.038,0.054-0.08,0.105-0.118,0.159c-0.595,0.846,0.297,1.777,1.147,1.714
		c2.142,3.841,4.471,7.565,7.249,10.729c-1.674,2.624-3.349,5.247-4.924,7.929c-1.507-2.924-3.264-6.048-6.459-6.842
		c-1.153-0.286-2.123,0.373-2.525,1.434c-0.618,1.63-1.37,3.194-2.058,4.791c-1.833-3.346-4.072-6.602-6.341-9.702
		C92.932,196.262,95.807,190.542,99.946,185.268z M95.924,219.208c1.17,0.475,2.807-0.667,2.305-2.008
		c-0.166-0.443-0.426-0.881-0.612-1.323c0.974-1.878,1.989-3.733,2.879-5.663c2.263,2.096,4.159,7.137,5.226,9.241
		c1.34,2.643,2.522,5.426,3.901,8.068c-2.314,4.066-4.636,8.128-6.886,12.232c-1.876-1.967-3.798-3.841-5.54-5.498
		c-0.679-0.647-2.063-0.838-2.712,0c-0.161,0.208-0.296,0.43-0.453,0.641c-1.218-2.197-2.501-4.378-3.809-6.537
		C92.295,225.4,94.175,222.341,95.924,219.208z M111.728,230.596c1.119,0.458,2.498-0.451,2.229-1.91
		c-0.064-0.346-0.201-0.69-0.283-1.036c0.163-0.251,0.332-0.497,0.494-0.748c3.104,5.091,6.194,10.216,9.576,15.116
		c-2.401,3.431-4.998,6.731-7.843,9.803c-0.902-0.664-1.817-1.221-2.734-1.564c-1.163-0.436-2.095-0.323-2.91,0.03
		c-1.254-3.071-3.389-6-5.784-8.71C106.936,237.945,109.33,234.269,111.728,230.596z M122.235,232.187
		c0.101-0.06,0.22-0.039,0.31-0.136c4.103-4.433,7.961-9.104,11.848-13.733c3.45,5.219,6.985,10.884,11.292,15.296
		c-0.255,0.278-0.52,0.566-0.762,0.821c-3.191,3.366-6.278,6.832-9.382,10.278c-1.702-2.363-3.43-4.694-4.935-7.001
		c-0.921-1.412-3.039-1.532-3.933,0c-0.159,0.272-0.369,0.512-0.532,0.782C124.885,236.368,123.559,234.278,122.235,232.187z
		 M143.224,223.021c2.225-4.768,4.524-9.474,7.141-14.047c3.979,4.85,7.503,9.935,11.014,15.155c0.01,0.014,0.023,0.019,0.033,0.033
		c-1.894,3.197-3.76,6.411-5.477,9.689c-1.26-1.611-2.733-3.241-4.659-3.433c-1.051-0.105-1.952,0.266-2.792,0.777
		C147.037,228.397,145.179,225.677,143.224,223.021z M157.907,235.925c3.385-4.592,6.458-9.45,9.561-14.256
		c3.574,5.025,6.977,10.155,10.43,15.267c-2.394,3.15-4.656,6.4-6.66,9.816c-0.276-0.348-0.555-0.724-0.826-1.053
		c-0.738-0.898-2.235-0.732-2.997,0c-0.37,0.355-0.747,0.702-1.118,1.057c-2.44-3.858-5.655-7.213-8.608-10.69
		C157.758,236.002,157.846,236.008,157.907,235.925z M169.149,217.027c-0.896-1.164-2.655-1.437-3.499,0
		c-0.716,1.218-1.445,2.439-2.171,3.656c-1.262-2.124-2.734-4.139-4.192-6.157c2.877-4.328,5.971-8.375,9.429-12.203
		c1.079,0.868,2.541,0.011,2.323-1.359c3.207,4.511,6.371,9.167,9.948,13.333c-2.169,3.462-4.342,6.999-5.966,10.691
		C173.124,222.286,171.156,219.634,169.149,217.027z M172.053,195.985c-0.642-0.766-1.999-0.684-2.653,0
		c-0.181,0.189-0.349,0.394-0.529,0.585c-0.782-1.32-1.708-2.563-2.587-3.833c1.449-2.394,2.829-4.837,4.188-7.279
		c0.894-1.607,1.781-3.218,2.672-4.828c0.19-0.344,1.507-3.148,2.247-4.308c-0.202,1.885,4.529,8.11,5.074,8.917
		c1.728,2.557,3.439,5.141,5.251,7.643c-2.683,3.381-5.226,6.871-7.593,10.529C176.139,200.855,174.061,198.378,172.053,195.985z
		 M180.959,178.348c-1.275-1.825-3.347-6.728-6.317-6.355c-2.1,0.264-3.352,3.136-4.257,5.439c-0.834-1.609-1.751-3.171-2.639-4.753
		c1.407-2.385,2.819-4.766,4.199-7.167c1.017-1.771,2.035-3.541,3.036-5.32c0.552-0.981,2.069-4.727,2.99-5.347
		c2.255-1.518,2.548,0.402,3.792,2.292c1.042,1.584,2.061,3.185,3.055,4.801c1.4,2.277,2.71,4.59,4.244,6.761
		c-2.128,4.118-4.228,8.25-6.188,12.441C182.227,180.216,181.603,179.27,180.959,178.348z M184.106,153.12
		c-1.268-2.142-2.875-4.564-5.192-4.449c-2.661,0.132-4.195,3.309-5.353,6.051c-1.188-1.987-2.595-3.901-4.055-5.781
		c1.395-2.135,2.734-4.309,4.054-6.49c0.639-1.055,1.266-2.116,1.899-3.174c0.415-0.693,1.604-3.386,2.278-3.81
		c2.186-1.374,4.156,2.959,5.205,4.61c1.242,1.954,2.162,4.077,3.735,5.771C185.696,148.238,184.795,150.662,184.106,153.12z
		 M196.392,110.525c0.062,0.037,0.131,0.018,0.196,0.043c1.162,2.97,2.155,6.121,2.92,9.513c0.718,3.189,1.207,6.465,1.596,9.774
		c-0.555-0.863-1.124-1.718-1.67-2.582c-1.749-2.77-3.472-5.559-5.27-8.298c-0.51-0.776-1.743-1.327-2.593-0.679
		c-1.797,1.37-3.286,2.957-4.611,4.648c-1.012-1.487-2.173-2.895-3.349-4.28c0.213-0.114,0.408-0.28,0.518-0.557
		c1.661-4.209,3.323-8.417,4.978-12.628c0.006-0.014,0.006-0.018,0.011-0.032c0.419-0.126,0.753-0.409,0.967-0.827
		c0.07,0.041,0.099,0.061,0.19,0.11c0.722,0.388,1.342,1.301,1.925,1.896C193.551,108.006,194.725,109.524,196.392,110.525z
		 M192.032,101.408c-1.025-0.79-2.189-1.312-3.477-0.908c-1.208-1.842-2.557-3.608-3.957-5.26c-1.377-1.625-3.536-5.102-5.978-5.212
		c-2.377-0.107-3.377,2.371-4.303,4.116c-1.389,2.618-2.766,5.244-4.126,7.878c-1.24-1.712-2.705-3.33-4.468-3.54
		c-1.015-0.121-1.792,0.285-2.471,0.858c-1.412-1.901-3.049-3.644-4.705-5.364c0.857-1.704,1.717-3.406,2.563-5.116
		c0.62-1.253,1.224-2.515,1.83-3.775c0.157-0.326,1.508-3.698,1.819-3.782c1.113-0.299,4.135,5.449,4.707,6.305
		c1.217,1.822,2.239,3.452,4.019,4.732c0.998,0.717,2.144-0.463,1.924-1.479c-0.694-3.204-3.063-6.139-4.968-8.888
		C179.273,86.489,186.683,92.802,192.032,101.408z M194.378,52.077c-2.886,4.226-8.867,7.642-12.371,10.441
		c-2.613,2.087-5.513,4.127-8.288,6.291c0.926-1.289,1.784-2.528,2.556-3.444c2.265-2.688,5.47-5.188,5.737-8.863
		c0.076-1.042-0.628-2.078-1.488-2.593c-0.073-0.043-0.159-0.055-0.234-0.095c0.104-0.207,0.129-0.482,0.188-0.729
		C183.559,52.027,190.006,51.954,194.378,52.077z M116.488,54.831c-6.112-8.639-13.283-16.222-21.27-23.11
		c8.38-0.061,16.124,1.639,24.052,5.59c2.15,1.071,4.265-0.684,3.861-2.968c-1.606-9.087-4.062-17.739-7.318-26.243
		c11.317,6.067,19.778,15.072,25.679,26.903c0.953,1.911,3.755,1.678,4.769,0c3.302-5.466,7.069-10.496,11.096-15.358
		c0.332,3.805,1,7.486,2.207,11.45c0.866,2.844,4.852,2.132,5.164-0.314c9.469-5.548,18.725-9.414,29.304-10.277
		c-3.893,3.792-7.561,7.801-10.708,12.268c-3.956,5.615-9.028,12.593-8.535,19.748c0.022,0.322,0.127,0.58,0.219,0.847
		c-3.098,0.637-6.536,2.371-9.56,4.092c1.504-5.557,4.055-10.649,7.414-15.507c1.42-2.054-0.937-4.957-3.241-4.215
		c-9.81,3.16-18.222,8.943-24.248,17.219c-3.802-3.914-5.401-8.506-8.27-13.295c-1.677-2.8-2.566-3.798-5.783-4.088
		c-1.007-0.091-1.953,0.618-2.465,1.414c-2.787,4.336-1.784,13.007-1.279,19.448C123.938,56.954,120.246,55.773,116.488,54.831z
		 M124.95,74.343c-2.629,2.747-4.907,5.735-6.752,9.038c-0.218-0.571-0.406-1.153-0.625-1.724c-0.444-1.154-1.69-1.851-2.863-1.165
		c-4.711,2.757-9.574,4.357-14.631,6.041C106.806,80.459,115.023,76.162,124.95,74.343z M97.01,89.573
		c0.2,0.599,0.631,1.091,1.459,1.006c5.699-0.586,11.227-2.923,16.276-5.677c0.415,1,0.889,1.973,1.312,2.969
		c-0.097,0.235-0.227,0.446-0.32,0.684c-0.292,0.745,0.485,1.271,1.138,1.165c1.118,2.587,2.198,5.192,3.418,7.733
		c-2.53,2.519-5.037,5.063-7.466,7.674c-1.952-2.727-3.979-5.402-6.144-7.979c-0.588-0.7-2.022-0.734-2.601,0
		c-1.452,1.842-2.763,3.766-4.089,5.683c-0.852-1.921-1.702-3.842-2.566-5.759c-0.778-1.726-1.427-3.719-2.383-5.442
		C95.666,90.907,96.356,90.262,97.01,89.573z M92.529,94.726c0.563,1.2,1.224,2.367,1.789,3.495c1.2,2.397,2.566,4.692,3.984,6.961
		c-1.802,2.748-3.485,5.572-5.063,8.475c-0.24-0.368-0.476-0.74-0.716-1.108c-0.908-1.389-1.95-3.784-3.746-4.263
		c-1.513-0.403-3.42,0.483-5.207,1.811C86.06,104.533,89.03,99.351,92.529,94.726z M81.457,115.147
		c2.48-1.939,5.549-4.561,7.26-2.895c1.421,1.384,2.451,3.846,3.515,5.507c1.132,1.769,2.262,3.539,3.419,5.293
		c-2.073,2.796-4.163,5.577-6.182,8.41c-1.306-2.112-2.624-4.222-3.899-6.32c-0.543-0.893-1.989-1.231-2.736-0.353
		c-2.233,2.624-4.429,5.276-6.629,7.926C77.561,126.674,79.3,120.764,81.457,115.147z M75.277,137.305
		c2.855-2.756,5.628-5.593,8.402-8.429c1.119,1.977,2.248,3.968,3.38,5.954c-0.097,0.142-0.203,0.277-0.3,0.419
		c-0.527,0.774,0.51,1.63,1.22,1.202c1.762,3.037,3.587,6.03,5.613,8.85c0.103,0.143,0.247,0.146,0.366,0.246
		c-1.814,2.624-3.602,5.266-5.285,7.969c-1.329-2.156-2.649-4.32-4.171-6.347c-0.642-0.855-1.991-1.327-2.83-0.364
		c-2.993,3.436-6.159,6.738-9.075,10.238C73.112,150.513,74.012,143.868,75.277,137.305z M72,169.523
		c0.062-3.587,0.23-7.266,0.495-10.988c0.36,0.564,1.099,0.864,1.78,0.258c2.848-2.538,5.56-5.237,8.319-7.878
		c1.373,2.162,2.771,4.307,4.066,6.518c1.485,2.535,2.623,5.427,4.741,7.484c-1.925,3.39-3.685,6.87-5.086,10.507
		c-0.863-1.34-1.815-2.588-2.995-3.398c-3.493-2.398-8.454,1.196-11.355,4.487C71.967,174.168,71.96,171.806,72,169.523z
		 M71.968,180.903c1.916-0.646,3.031-1.604,4.678-2.898c1.231-0.967,2.337-2.619,4.002-2.235c1.621,0.374,2.414,2.212,3.374,3.541
		c2.277,3.155,4.825,8.321,8.375,10.34c-1.993,3.28-3.652,6.757-4.535,10.316c-0.848-1.13-1.692-2.237-2.509-3.305
		c-0.897-1.173-2.372-1.233-3.259,0c-0.661,0.917-1.307,1.846-1.968,2.764c-0.872-0.852-1.84-1.639-2.657-2.495
		c-1.794-1.879-3.48-3.869-5.027-5.956c-0.062-0.083-0.149-0.092-0.223-0.143C72.074,187.502,72.004,184.187,71.968,180.903z
		 M73.707,208.423c-0.659-4.779-1.039-9.639-1.314-14.498c1.584,2.781,3.618,5.921,6.071,7.835c-1.52,2.119-3.056,4.226-4.537,6.372
		C73.86,208.229,73.778,208.326,73.707,208.423z M77.75,227.092c-1.584-4.965-2.725-10.198-3.586-15.55
		c1.942-1.855,4.918-5.286,5.323-5.784c1.342-1.653,2.695-3.299,4.046-4.945c3.314,5.16,6.434,10.634,9.998,15.592
		c-1.522,3.199-3.152,6.345-4.854,9.461c-1.026-1.65-2.052-3.305-3.098-4.911c-0.701-1.078-2.413-1.231-3.079,0
		c-1.39,2.569-2.861,5.122-4.172,7.746C78.141,228.154,77.929,227.653,77.75,227.092z M87.836,247.324
		c-3.262-4.36-6.045-9.471-8.353-15.411c1.603-2.106,3.036-4.347,4.456-6.587c2.434,4.424,5.002,8.843,7.778,13.044
		C90.033,241.185,88.69,244.16,87.836,247.324z M106.454,262.501c-6.43-2.979-11.941-7.134-16.594-12.591
		c1.126-3.209,2.677-6.127,4.524-8.918c1.079-0.008,2.056-0.974,1.722-2.215c1.868,1.977,3.727,3.963,5.439,6.077
		c2.121,2.618,3.894,5.681,6.391,7.952C106.669,255.504,106.33,259.533,106.454,262.501z M109.447,263.79
		c-0.106-2.658-0.02-7.475,1.893-8.461c1.626-0.839,5.759,4.288,6.639,5.182c2.041,2.072,4.003,4.219,5.882,6.438
		c0.206,0.244,0.397,0.495,0.595,0.743C119.028,266.871,114.026,265.59,109.447,263.79z M131.109,268.475
		c-1.753-3.147-4.737-5.929-7.074-8.415c-1.642-1.747-3.655-4.2-5.825-6.272c3.703-3.383,7.001-7.045,10.145-10.951
		c3.087,5.257,6.29,11.127,10.67,14.995c0.186,0.164,0.434,0.189,0.661,0.266c-2.869,3.289-5.551,6.737-7.976,10.394
		C131.499,268.475,131.321,268.492,131.109,268.475z M135.952,268.605c3.784-4.669,7.919-8.977,12.405-12.969
		c1.482,4.026,3.086,8.213,5.171,11.957C148.284,268.545,142.372,268.831,135.952,268.605z M151.565,250.937
		c-0.659-1.641-2.493-2.286-3.892-1.027c-1.995,1.795-3.768,3.787-5.593,5.733c-1.176-2.919-2.922-5.711-4.8-8.442
		c1.911-1.808,3.829-3.61,5.727-5.432c1.772-1.702,5.012-6.145,7.398-6.122c2.366,0.023,4.681,4.27,6.196,6.116
		c2.165,2.639,4.203,5.392,6.736,7.683c0.022,0.02,0.049,0.025,0.072,0.044c-2.913,2.758-5.826,5.517-8.746,8.269
		C153.574,255.487,152.482,253.221,151.565,250.937z M158.557,266.369c-0.747-1.876-1.645-3.723-2.52-5.573
		c4.127-3.481,8.247-6.97,12.392-10.43c0.933,1.378,1.9,2.731,2.694,4.204c0.884,1.639,1.582,3.351,2.454,4.97
		C169.228,262.449,164.308,264.815,158.557,266.369z M177.18,256.991c-0.791-2.547-2.215-5.021-3.776-7.296
		c3.038-4.361,6.352-8.451,9.938-12.355c1.362,2.47,2.953,4.954,5.195,6.272C185.466,248.718,181.755,253.26,177.18,256.991z
		 M190.699,239.748c-1.082-2.741-3.462-5.395-4.911-7.597c-0.786-1.193-2.625-1.658-3.684-0.475
		c-0.53,0.592-0.974,1.252-1.486,1.858c-1.223-2.029-2.565-3.988-3.892-5.954c3.516-4.016,6.349-8.789,9.257-13.319
		c1.772,1.709,3.5,3.455,5.073,5.365c1.719,2.087,3.187,4.404,4.922,6.477C194.549,230.923,192.848,235.528,190.699,239.748z
		 M197.468,220.443c-2.774-4.255-6.887-8.132-10.355-11.037c-1.056-0.885-2.598-0.826-3.36,0.433
		c-0.171,0.282-0.354,0.568-0.528,0.851c-1.132-1.86-2.412-3.667-3.735-5.449c0.106-0.06,0.227-0.047,0.317-0.158
		c2.705-3.294,5.519-6.499,8.395-9.647c1.546,0.409,3.265-0.896,2.49-2.631c1.388-1.473,2.747-2.975,4.174-4.41
		c2.24,2.901,4.166,5.93,6.098,9.061C200.267,205.415,199.197,213.174,197.468,220.443z M201.451,190.235
		c-1.472-2.297-3.154-4.469-4.921-6.522c-0.715-0.832-2.222-0.778-2.945,0c-1.743,1.877-3.334,3.851-4.972,5.794
		c-1.312-2.019-2.714-3.978-4.088-5.96c2.692-4.275,5.209-8.667,7.698-13.075c0.431-0.286,0.664-0.745,0.71-1.257
		c0.897-1.594,1.802-3.185,2.697-4.779c1.96,3.933,3.859,8.011,6.231,11.608C201.776,180.785,201.72,185.538,201.451,190.235z
		 M202.063,166.846c-1.464-2.666-3.106-5.244-4.625-7.654c-0.76-1.205-2.749-1.396-3.462,0c-0.915,1.792-1.848,3.584-2.777,5.375
		c-1.502-2.924-3.392-5.703-5.191-8.398c2.52-4.745,4.674-9.699,7.067-14.524c1.343,1.26,2.649,2.554,3.836,3.978
		c1.805,2.167,3.111,4.676,4.942,6.805c0.09,0.105,0.22,0.09,0.323,0.165C202.164,157.398,202.089,162.177,202.063,166.846z"/>
</g>
<g>
</g>
<g>
</g>
<g>
</g>
<g>
</g>
<g>
</g>
<g>
</g>
<g>
</g>
<g>
</g>
<g>
</g>
<g>
</g>
<g>
</g>
<g>
</g>
<g>
</g>
<g>
</g>
<g>
</g>
</svg>
